<?xml version="1.0" standalone="no"?>
<!DOCTYPE svg PUBLIC "-//W3C//DTD SVG 20010904//EN"
 "http://www.w3.org/TR/2001/REC-SVG-20010904/DTD/svg10.dtd">
<svg version="1.0" xmlns="http://www.w3.org/2000/svg"
 width="500.000000pt" height="500.000000pt" viewBox="0 0 500.000000 500.000000"
 preserveAspectRatio="xMidYMid meet">
<metadata>
Created by potrace 1.14, written by Peter Selinger 2001-2017
</metadata>
<g transform="translate(0.000000,500.000000) scale(0.100000,-0.100000)"
fill="#000000" stroke="none">
<path d="M2420 4249 c-151 -88 -158 -89 -271 -59 -92 24 -146 25 -180 2 -14
-9 -55 -47 -90 -84 -74 -77 -102 -88 -225 -88 -109 0 -135 -17 -191 -130 -50
-99 -86 -134 -162 -155 -139 -38 -172 -71 -191 -189 -19 -116 -39 -149 -117
-200 -126 -82 -140 -109 -123 -246 15 -114 9 -134 -68 -226 -84 -101 -88 -125
-37 -248 44 -106 44 -146 4 -239 -56 -127 -52 -150 39 -264 73 -92 77 -106 63
-222 -18 -140 -8 -159 133 -253 70 -47 85 -72 102 -173 25 -144 36 -156 172
-200 99 -32 141 -65 172 -137 34 -80 75 -134 111 -147 18 -6 66 -11 108 -11
114 0 135 -10 226 -100 97 -96 115 -102 233 -71 122 31 143 29 244 -30 133
-76 134 -76 298 15 76 41 105 44 209 16 129 -34 158 -26 241 70 70 80 114 100
218 100 132 0 159 18 229 153 49 95 63 107 173 142 125 40 150 69 170 199 17
107 32 127 147 205 89 59 97 78 88 222 -8 135 -5 142 75 235 78 91 81 133 24
259 -36 78 -36 132 0 210 60 131 55 169 -34 276 -28 34 -56 73 -61 87 -6 15
-7 74 -3 143 6 110 5 119 -15 148 -12 17 -55 53 -94 79 -91 61 -111 91 -127
189 -22 142 -36 159 -167 199 -46 14 -96 37 -113 50 -16 14 -51 66 -76 114
-26 51 -57 96 -72 106 -20 13 -58 20 -140 25 -72 4 -120 12 -135 22 -13 8 -57
49 -98 91 -70 70 -78 76 -117 76 -23 0 -79 -10 -125 -21 -105 -27 -130 -23
-231 37 -102 62 -142 66 -216 23z m400 -287 c614 -144 1060 -612 1164 -1221
21 -123 21 -375 1 -494 -37 -208 -112 -396 -228 -570 -213 -318 -513 -532
-887 -630 -106 -27 -131 -30 -325 -34 -187 -4 -222 -2 -315 17 -304 62 -562
199 -775 414 -210 212 -340 451 -407 747 -20 90 -23 131 -23 309 0 160 4 224
18 290 62 288 201 547 404 754 225 229 493 368 828 431 116 21 429 14 545 -13z"/>
<path d="M2271 3854 c-46 -8 -130 -30 -187 -48 -477 -160 -820 -545 -926
-1039 -28 -130 -30 -363 -4 -507 98 -549 507 -977 1059 -1108 100 -24 132 -26
297 -26 166 0 197 2 298 26 226 54 414 148 595 299 397 330 572 881 441 1386
-139 536 -594 948 -1128 1022 -105 15 -343 12 -445 -5z m499 -84 c597 -116
1040 -657 1040 -1269 0 -209 -39 -379 -129 -566 -128 -267 -331 -472 -596
-602 -190 -94 -360 -133 -574 -133 -345 0 -653 125 -901 366 -200 194 -322
419 -377 692 -26 131 -23 376 7 507 56 251 171 464 345 640 225 228 476 347
825 389 66 8 265 -5 360 -24z"/>
<path d="M1780 3336 c0 -29 5 -31 118 -47 l82 -11 0 -788 c0 -742 -1 -789 -17
-794 -10 -3 -55 -10 -100 -17 -77 -12 -83 -14 -83 -36 l0 -24 473 4 c444 3
477 5 554 25 98 26 202 76 260 127 27 23 56 64 80 113 38 75 38 77 38 197 0
116 -1 123 -33 187 -57 116 -185 205 -347 243 -144 33 -140 28 -45 58 95 29
190 85 234 138 16 19 41 59 55 89 23 48 26 68 25 155 0 79 -5 112 -23 157 -40
103 -135 174 -286 213 -91 23 -305 35 -662 35 l-323 0 0 -24z m782 -47 c115
-25 201 -94 233 -188 23 -67 30 -177 16 -256 -22 -125 -79 -205 -181 -254 -52
-24 -65 -26 -232 -29 l-178 -4 0 371 0 371 145 0 c79 0 168 -5 197 -11z m174
-822 c100 -47 162 -125 185 -236 6 -31 10 -105 7 -171 -3 -103 -7 -122 -35
-182 -53 -113 -133 -174 -258 -197 -32 -6 -139 -11 -237 -11 l-178 0 0 416 0
416 228 -4 c225 -3 228 -3 288 -31z"/>
</g>
</svg>
